<svg width="64" height="64" viewBox="0 0 64 64" fill="none" xmlns="http://www.w3.org/2000/svg">
<circle cx="32" cy="32" r="32" fill="black"/>
<path d="M41.9853 26.4246C41.8333 26.5446 39.1499 28.0834 39.1499 31.5051C39.1499 35.4628 42.5644 36.863 42.6666 36.8976C42.6509 36.983 42.1241 38.8152 40.8663 40.682C39.7448 42.3248 38.5734 43.965 36.7915 43.965C35.0095 43.965 34.551 42.9116 32.4939 42.9116C30.4892 42.9116 29.7764 43.9997 28.1465 43.9997C26.5166 43.9997 25.3793 42.4795 24.0717 40.6127C22.557 38.4205 21.3333 35.0148 21.3333 31.7825C21.3333 26.5979 24.6455 23.8483 27.9054 23.8483C29.6376 23.8483 31.0814 25.0058 32.1689 25.0058C33.204 25.0058 34.8182 23.779 36.7888 23.779C37.5357 23.779 40.2191 23.8483 41.9853 26.4246ZM35.8533 21.5841C36.6683 20.6 37.2448 19.2345 37.2448 17.8691C37.2448 17.6797 37.2291 17.4877 37.195 17.333C35.8691 17.3837 34.2915 18.2318 33.3403 19.3545C32.5935 20.2186 31.8964 21.5841 31.8964 22.9682C31.8964 23.1763 31.9305 23.3843 31.9462 23.451C32.0301 23.467 32.1663 23.4856 32.3026 23.4856C33.4923 23.4856 34.9886 22.6749 35.8533 21.5841Z" fill="white"/>
</svg>
