<svg width="25" height="24" viewBox="0 0 25 24" fill="none" xmlns="http://www.w3.org/2000/svg">
<g id="ic_sns_24/kakaotalk">
<g id="Group 632">
<path id="Vector" d="M12.333 1.5C5.98169 1.5 0.833008 5.61231 0.833008 10.685C0.833008 13.9646 2.9855 16.8423 6.22341 18.4673C6.04726 19.0827 5.09144 22.4262 5.0534 22.6889C5.0534 22.6889 5.03051 22.8863 5.15668 22.9616C5.28284 23.0368 5.43124 22.9784 5.43124 22.9784C5.79305 22.9272 9.62686 20.1992 10.2904 19.7255C10.9533 19.8206 11.6359 19.87 12.333 19.87C18.6843 19.87 23.833 15.7578 23.833 10.685C23.833 5.61231 18.6843 1.5 12.333 1.5Z" fill="#1B1A1A"/>
<path id="Vector_2" d="M6.09468 14C5.7425 14 5.45609 13.7097 5.45609 13.3528V9.32706H4.45968C4.11409 9.32706 3.83301 9.02935 3.83301 8.66353C3.83301 8.29771 4.1142 8 4.45968 8H7.72968C8.07526 8 8.35635 8.29771 8.35635 8.66353C8.35635 9.02935 8.07515 9.32706 7.72968 9.32706H6.73327V13.3528C6.73327 13.7097 6.44686 14 6.09468 14ZM11.6943 13.9912C11.428 13.9912 11.2242 13.8764 11.1628 13.6919L10.8466 12.8134L8.89936 12.8133L8.58294 13.6923C8.52174 13.8766 8.31814 13.9912 8.05185 13.9912C7.91177 13.9913 7.77332 13.9594 7.64592 13.8977C7.46988 13.8115 7.30065 13.5746 7.49457 12.9354L9.02207 8.66895C9.12968 8.34447 9.45653 8.01016 9.87246 8.00011C10.2896 8.01005 10.6164 8.34447 10.7242 8.66963L12.2511 12.9342C12.4454 13.5748 12.2762 13.8118 12.1002 13.8978C11.9727 13.9594 11.8343 13.9913 11.6943 13.9912ZM10.5108 11.6131L9.87299 9.69028L9.23515 11.6131H10.5108ZM13.2788 13.9012C12.9413 13.9012 12.6668 13.6224 12.6668 13.28V8.67765C12.6668 8.30392 12.9593 8 13.3187 8C13.6781 8 13.9706 8.30392 13.9706 8.67765V12.6588H15.3276C15.6651 12.6588 15.9396 12.9376 15.9396 13.28C15.9396 13.6224 15.6651 13.9012 15.3276 13.9012H13.2788ZM16.8266 13.9912C16.4744 13.9912 16.188 13.6873 16.188 13.3135V8.67765C16.188 8.30392 16.4744 8 16.8266 8C17.1788 8 17.4652 8.30392 17.4652 8.67765V10.1341L19.2468 8.2435C19.3385 8.14626 19.4644 8.09272 19.601 8.09272C19.7605 8.09272 19.9206 8.16568 20.0405 8.29286C20.1524 8.41144 20.2191 8.56403 20.2282 8.72249C20.2375 8.8823 20.1874 9.02878 20.0873 9.13506L18.6321 10.6791L20.204 12.8889C20.2547 12.9598 20.2917 13.0407 20.3128 13.1268C20.3338 13.213 20.3385 13.3028 20.3266 13.3909C20.3152 13.4791 20.2874 13.564 20.2449 13.6407C20.2024 13.7174 20.1459 13.7844 20.0788 13.8378C19.9684 13.9269 19.8334 13.9749 19.6947 13.9746C19.5958 13.9751 19.4981 13.951 19.4095 13.9042C19.3209 13.8574 19.2439 13.7893 19.1846 13.7052L17.687 11.5995L17.4654 11.8347V13.3132C17.4652 13.4929 17.3978 13.6652 17.2781 13.7923C17.1583 13.9194 16.996 13.991 16.8266 13.9912Z" fill="white"/>
</g>
</g>
</svg>
