<svg width="64" height="64" viewBox="0 0 64 64" fill="none" xmlns="http://www.w3.org/2000/svg">
<circle cx="32" cy="32" r="32" fill="#FFE812"/>
<path d="M32.0001 18C23.5317 18 16.6667 23.4831 16.6667 30.2467C16.6667 34.6195 19.5367 38.4564 23.854 40.623C23.6191 41.4436 22.3447 45.9017 22.2939 46.2519C22.2939 46.2519 22.2634 46.515 22.4316 46.6154C22.5999 46.7158 22.7977 46.6378 22.7977 46.6378C23.2801 46.5696 28.3919 42.9323 29.2766 42.3007C30.1605 42.4275 31.0706 42.4934 32.0001 42.4934C40.4685 42.4934 47.3334 37.0104 47.3334 30.2467C47.3334 23.4831 40.4685 18 32.0001 18Z" fill="black"/>
<path d="M23.6823 34.667C23.2127 34.667 22.8309 34.28 22.8309 33.8041V28.4364H21.5023C21.0415 28.4364 20.6667 28.0395 20.6667 27.5517C20.6667 27.0639 21.0417 26.667 21.5023 26.667H25.8623C26.3231 26.667 26.6979 27.0639 26.6979 27.5517C26.6979 28.0395 26.3229 28.4364 25.8623 28.4364H24.5338V33.8041C24.5338 34.28 24.1519 34.667 23.6823 34.667ZM31.1484 34.6552C30.7933 34.6552 30.5217 34.5022 30.4399 34.2562L30.0182 33.0849L27.4219 33.0848L27 34.2568C26.9184 34.5024 26.6469 34.6552 26.2919 34.6552C26.1051 34.6554 25.9205 34.6129 25.7506 34.5306C25.5159 34.4157 25.2903 34.0997 25.5488 33.2475L27.5855 27.5589C27.729 27.1263 28.1648 26.6805 28.7194 26.6671C29.2755 26.6804 29.7113 27.1263 29.855 27.5598L31.8909 33.2459C32.15 34.1 31.9244 34.4161 31.6896 34.5307C31.5197 34.6129 31.3351 34.6554 31.1484 34.6552ZM29.5705 31.4845L28.7201 28.9207L27.8696 31.4845H29.5705ZM33.2611 34.5352C32.8111 34.5352 32.4452 34.1636 32.4452 33.707V27.5705C32.4452 27.0722 32.8351 26.667 33.3144 26.667C33.7936 26.667 34.1835 27.0722 34.1835 27.5705V32.8788H35.9929C36.4429 32.8788 36.8089 33.2504 36.8089 33.707C36.8089 34.1636 36.4429 34.5352 35.9929 34.5352H33.2611ZM37.9915 34.6552C37.5219 34.6552 37.1401 34.25 37.1401 33.7517V27.5705C37.1401 27.0722 37.5219 26.667 37.9915 26.667C38.4611 26.667 38.843 27.0722 38.843 27.5705V29.5125L41.2185 26.9917C41.3407 26.862 41.5086 26.7906 41.6908 26.7906C41.9034 26.7906 42.1168 26.8879 42.2767 27.0575C42.4259 27.2156 42.5149 27.419 42.5271 27.6303C42.5394 27.8434 42.4726 28.0387 42.3392 28.1804L40.3989 30.2391L42.4947 33.1855C42.5624 33.28 42.6117 33.3879 42.6397 33.5028C42.6678 33.6177 42.6741 33.7374 42.6582 33.8549C42.643 33.9724 42.606 34.0857 42.5493 34.1879C42.4926 34.2902 42.4173 34.3796 42.3278 34.4507C42.1806 34.5695 42.0006 34.6336 41.8157 34.6331C41.6838 34.6338 41.5535 34.6016 41.4354 34.5392C41.3173 34.4769 41.2146 34.386 41.1355 34.274L39.1387 31.4664L38.8433 31.7799V33.7513C38.843 33.9909 38.7532 34.2207 38.5935 34.3901C38.4338 34.5596 38.2174 34.6549 37.9915 34.6552Z" fill="#FFE812"/>
</svg>
