<svg width="97" height="69" viewBox="0 0 97 69" fill="none" xmlns="http://www.w3.org/2000/svg">
<g clip-path="url(#clip0_615_2394)">
<path d="M73.6901 67.9642C73.6901 67.9642 70.8015 66.6202 68.4708 63.1678C66.7103 60.56 65.8611 57.4529 65.8611 54.3149V48.7725C65.8611 48.7725 66.2826 48.7047 66.9273 48.4828C70.6775 47.6875 73.5413 43.5261 73.5413 38.4893C73.5413 32.984 70.1134 28.5082 65.8487 28.3664V14.2547C65.8487 11.9798 64.9995 9.79738 63.4746 8.102C60.6914 5.03183 55.5651 0.833462 47.8787 0.999917H36.9256C36.9256 0.999917 36.5227 0.987587 36.4297 1.40064C36.4297 1.40064 36.3305 1.77671 36.7335 1.96782C36.7335 1.96782 39.2997 3.10218 40.4279 4.07009C40.4279 4.07009 41.7978 5.01333 42.1511 6.03056C42.4549 6.89983 42.895 9.32884 40.6014 10.4139C40.5952 10.4139 40.589 10.42 40.5766 10.4262C39.7832 10.7961 38.8596 10.716 38.06 10.3461C34.7933 8.81714 31.2042 7.96637 27.4354 7.96637C12.2858 7.9787 0 21.6404 0 38.4893C0 55.3383 12.2858 68.9999 27.4416 68.9999C34.6817 68.9999 41.2585 65.8804 46.1617 60.7881C46.5584 61.7314 47.3456 63.211 48.8209 64.7337C51.4802 67.4833 55.2118 68.9568 59.0488 68.9568H73.4979C73.4979 68.9568 73.9504 68.9074 73.9938 68.5129C74.0372 68.1183 73.7025 67.9765 73.6839 67.9642H73.6901ZM46.1803 49.987C46.1803 49.987 39.0084 59.3763 28.638 53.2237C18.2738 47.0772 18.4101 27.38 31.3778 22.4726C31.3778 22.4726 39.4919 19.0819 46.1741 27.0286V49.9809L46.1803 49.987Z" fill="white"/>
<circle cx="87" cy="59" r="10" fill="white"/>
</g>
<defs>
<clipPath id="clip0_615_2394">
<rect width="97" height="69" fill="white"/>
</clipPath>
</defs>
</svg>
