<svg width="25" height="24" viewBox="0 0 25 24" fill="none" xmlns="http://www.w3.org/2000/svg">
<g id="ic_sns_24/youtube">
<path id="Vector" d="M24.1652 6.62364C23.8886 5.59039 23.0765 4.7784 22.0433 4.50181C20.1724 4 12.6669 4 12.6669 4C12.6669 4 5.16155 4 3.29063 4.50181C2.25738 4.7784 1.44539 5.59039 1.1688 6.62364C0.666992 8.49456 0.666992 12.4004 0.666992 12.4004C0.666992 12.4004 0.666992 16.3062 1.1688 18.1772C1.44539 19.2104 2.25738 20.0224 3.29063 20.2989C5.16155 20.8008 12.6669 20.8008 12.6669 20.8008C12.6669 20.8008 20.1724 20.8008 22.0433 20.2989C23.0765 20.0224 23.8886 19.2104 24.1652 18.1772C24.667 16.3062 24.667 12.4004 24.667 12.4004C24.667 12.4004 24.665 8.49456 24.1652 6.62364Z" fill="#FF0000"/>
<path id="Vector_2" d="M10.2646 16.0005L16.4998 12.4009L10.2646 8.80127V16.0005Z" fill="white"/>
</g>
</svg>
