<svg width="97" height="69" viewBox="0 0 97 69" fill="none" xmlns="http://www.w3.org/2000/svg">
<g clip-path="url(#clip0_165_164)">
<path d="M73.6901 67.964C73.6901 67.964 70.8015 66.62 68.4708 63.1676C66.7103 60.5598 65.8611 57.4526 65.8611 54.3146V48.7723C65.8611 48.7723 66.2826 48.7045 66.9273 48.4825C70.6775 47.6872 73.5413 43.5259 73.5413 38.4891C73.5413 32.9837 70.1134 28.5079 65.8487 28.3661V14.2544C65.8487 11.9795 64.9995 9.79713 63.4746 8.10176C60.6914 5.03159 55.5651 0.833218 47.8787 0.999673H36.9256C36.9256 0.999673 36.5227 0.987343 36.4297 1.4004C36.4297 1.4004 36.3305 1.77646 36.7335 1.96758C36.7335 1.96758 39.2997 3.10194 40.4279 4.06984C40.4279 4.06984 41.7978 5.01309 42.1511 6.03032C42.4549 6.89958 42.895 9.32859 40.6014 10.4136C40.5952 10.4136 40.589 10.4198 40.5766 10.426C39.7832 10.7959 38.8596 10.7157 38.06 10.3458C34.7933 8.8169 31.2042 7.96613 27.4354 7.96613C12.2858 7.97846 0 21.6401 0 38.4891C0 55.338 12.2858 68.9997 27.4416 68.9997C34.6817 68.9997 41.2585 65.8802 46.1617 60.7879C46.5584 61.7311 47.3456 63.2107 48.8209 64.7335C51.4802 67.4831 55.2118 68.9565 59.0488 68.9565H73.4979C73.4979 68.9565 73.9504 68.9072 73.9938 68.5126C74.0372 68.1181 73.7025 67.9763 73.6839 67.964H73.6901ZM46.1803 49.9868C46.1803 49.9868 39.0084 59.3761 28.638 53.2234C18.2738 47.0769 18.4101 27.3797 31.3778 22.4724C31.3778 22.4724 39.4919 19.0816 46.1741 27.0283V49.9806L46.1803 49.9868Z" fill="#FF2768"/>
<circle cx="87" cy="59" r="10" fill="#FF2768"/>
</g>
<defs>
<clipPath id="clip0_165_164">
<rect width="97" height="69" fill="white"/>
</clipPath>
</defs>
</svg>
